<svg width="25" height="25" viewBox="0 0 25 25" fill="none" xmlns="http://www.w3.org/2000/svg">
<path d="M3.29167 11.1667H8.625C10.0917 11.1667 11.2917 9.96667 11.2917 8.5V3.16667C11.2917 1.7 10.0917 0.5 8.625 0.5H3.29167C1.825 0.5 0.625 1.7 0.625 3.16667V8.5C0.625 9.96667 1.825 11.1667 3.29167 11.1667Z" fill="black"/>
<path d="M3.29167 24.5007H8.625C10.0917 24.5007 11.2917 23.3007 11.2917 21.834V16.5007C11.2917 15.034 10.0917 13.834 8.625 13.834H3.29167C1.825 13.834 0.625 15.034 0.625 16.5007V21.834C0.625 23.3007 1.825 24.5007 3.29167 24.5007Z" fill="black"/>
<path d="M13.957 3.16667V8.5C13.957 9.96667 15.157 11.1667 16.6237 11.1667H21.957C23.4237 11.1667 24.6237 9.96667 24.6237 8.5V3.16667C24.6237 1.7 23.4237 0.5 21.957 0.5H16.6237C15.157 0.5 13.957 1.7 13.957 3.16667Z" fill="black"/>
<path d="M16.6237 24.5007H21.957C23.4237 24.5007 24.6237 23.3007 24.6237 21.834V16.5007C24.6237 15.034 23.4237 13.834 21.957 13.834H16.6237C15.157 13.834 13.957 15.034 13.957 16.5007V21.834C13.957 23.3007 15.157 24.5007 16.6237 24.5007Z" fill="black"/>
</svg>
