<svg width="24" height="26" viewBox="0 0 24 26" fill="none" xmlns="http://www.w3.org/2000/svg">
<path d="M5.75 11.75H8.25V14.25H5.75V11.75ZM23.25 5.5V23C23.25 24.375 22.125 25.5 20.75 25.5H3.25C1.8625 25.5 0.75 24.375 0.75 23L0.7625 5.5C0.7625 4.125 1.8625 3 3.25 3H4.5V0.5H7V3H17V0.5H19.5V3H20.75C22.125 3 23.25 4.125 23.25 5.5ZM3.25 8H20.75V5.5H3.25V8ZM20.75 23V10.5H3.25V23H20.75ZM15.75 14.25H18.25V11.75H15.75V14.25ZM10.75 14.25H13.25V11.75H10.75V14.25Z" fill="#1A293D" fill-opacity="0.83"/>
</svg>
