<svg width="24" height="23" viewBox="0 0 24 23" fill="none" xmlns="http://www.w3.org/2000/svg">
<path d="M22.1991 8.05333L15.7458 7.49333L13.2258 1.56C12.7725 0.48 11.2258 0.48 10.7725 1.56L8.25245 7.50667L1.81245 8.05333C0.63912 8.14667 0.15912 9.61333 1.05245 10.3867L5.94579 14.6267L4.47912 20.92C4.21245 22.0667 5.45245 22.9733 6.46579 22.36L11.9991 19.0267L17.5325 22.3733C18.5458 22.9867 19.7858 22.08 19.5191 20.9333L18.0525 14.6267L22.9458 10.3867C23.8391 9.61333 23.3725 8.14667 22.1991 8.05333ZM11.9991 16.5333L6.98579 19.56L8.31912 13.8533L3.89245 10.0133L9.73245 9.50667L11.9991 4.13333L14.2791 9.52L20.1191 10.0267L15.6925 13.8667L17.0258 19.5733L11.9991 16.5333Z" fill="#1C304A" fill-opacity="0.5"/>
</svg>
