<svg width="24" height="24" viewBox="0 0 24 24" fill="none" xmlns="http://www.w3.org/2000/svg">
<path fill-rule="evenodd" clip-rule="evenodd" d="M6.3352 16.0462C5.88827 16.4931 5.88827 17.2178 6.3352 17.6647C6.78214 18.1116 7.50677 18.1116 7.9537 17.6647L12 13.6184L16.0465 17.6648C16.4935 18.1118 17.2181 18.1118 17.665 17.6648C18.112 17.2179 18.112 16.4933 17.665 16.0463L13.6185 11.9999L17.6647 7.9537C18.1116 7.50676 18.1116 6.78214 17.6647 6.3352C17.2178 5.88827 16.4931 5.88827 16.0462 6.3352L12 10.3814L7.95403 6.33536C7.5071 5.88842 6.78247 5.88842 6.33553 6.33536C5.8886 6.78229 5.8886 7.50692 6.33553 7.95385L10.3815 11.9999L6.3352 16.0462Z" fill="#192434"/>
</svg>
