<svg width="16" height="19" viewBox="0 0 16 19" fill="none" xmlns="http://www.w3.org/2000/svg">
<path d="M5.83464 14.3333H10.168C10.7638 14.3333 11.2513 13.8458 11.2513 13.2499V7.83328H12.9738C13.938 7.83328 14.4255 6.66328 13.743 5.98078L8.77047 1.00828C8.34797 0.585781 7.66547 0.585781 7.24297 1.00828L2.27047 5.98078C1.58797 6.66328 2.06464 7.83328 3.0288 7.83328H4.7513V13.2499C4.7513 13.8458 5.2388 14.3333 5.83464 14.3333ZM1.5013 16.4999H14.5013C15.0971 16.4999 15.5846 16.9874 15.5846 17.5833C15.5846 18.1791 15.0971 18.6666 14.5013 18.6666H1.5013C0.905469 18.6666 0.417969 18.1791 0.417969 17.5833C0.417969 16.9874 0.905469 16.4999 1.5013 16.4999Z" fill="#14A9F9"/>
</svg>
