<svg width="54" height="54" viewBox="0 0 54 54" fill="none" xmlns="http://www.w3.org/2000/svg">
<path fill-rule="evenodd" clip-rule="evenodd" d="M14.2542 36.1039C13.2486 37.1095 13.2486 38.74 14.2542 39.7456C15.2598 40.7512 16.8902 40.7512 17.8958 39.7456L27.0001 30.6413L36.1047 39.7459C37.1103 40.7515 38.7407 40.7515 39.7463 39.7459C40.7519 38.7403 40.7519 37.1099 39.7463 36.1043L30.6417 26.9997L39.7456 17.8958C40.7512 16.8902 40.7512 15.2598 39.7456 14.2542C38.74 13.2486 37.1096 13.2486 36.104 14.2542L27.0001 23.3581L17.8966 14.2546C16.891 13.2489 15.2606 13.2489 14.2549 14.2546C13.2493 15.2602 13.2493 16.8906 14.2549 17.8962L23.3585 26.9997L14.2542 36.1039Z" fill="white"/>
</svg>
