<svg width="29" height="28" viewBox="0 0 29 28" fill="none" xmlns="http://www.w3.org/2000/svg">
<path d="M17.9312 4.53655C21.0337 5.49988 23.4987 7.96488 24.462 11.0674C24.7312 11.9599 25.5387 12.5832 26.4595 12.5832H26.5162C27.9329 12.5832 28.9529 11.2232 28.542 9.87738C27.1679 5.37238 23.612 1.81655 19.107 0.442384C17.7754 0.0315506 16.4154 1.05155 16.4154 2.46822V2.52488C16.4154 3.45988 17.0387 4.26738 17.9312 4.53655ZM24.462 16.9324C23.4987 20.049 21.0337 22.4999 17.9312 23.4632C17.0387 23.7324 16.4154 24.5399 16.4154 25.4607V25.5174C16.4154 26.934 17.7754 27.954 19.1212 27.5432C23.6262 26.169 27.182 22.6132 28.5562 18.1082C28.967 16.7624 27.947 15.4024 26.5445 15.4024H26.4737C25.5387 15.4165 24.7312 16.0399 24.462 16.9324ZM13.582 25.489C13.582 24.5399 12.9445 23.7324 12.0379 23.449C8.01453 22.1882 5.08203 18.434 5.08203 13.9999C5.08203 9.56572 8.01453 5.81155 12.0379 4.55072C12.9445 4.26738 13.582 3.45988 13.582 2.51072V2.49655C13.582 1.07988 12.2079 0.0315505 10.8479 0.456551C5.0537 2.22738 0.832031 7.62488 0.832031 13.9999C0.832031 20.3749 5.0537 25.7724 10.8479 27.5432C12.2079 27.9682 13.582 26.9199 13.582 25.489Z" fill="#192434"/>
</svg>
