<svg width="34" height="30" viewBox="0 0 34 30" fill="none" xmlns="http://www.w3.org/2000/svg">
<path d="M17 6.00078C22.685 6.00078 27.755 9.19578 30.23 14.2508C29.345 16.0808 28.1 17.6558 26.615 18.9308L28.73 21.0458C30.815 19.2008 32.465 16.8908 33.5 14.2508C30.905 7.66578 24.5 3.00078 17 3.00078C15.095 3.00078 13.265 3.30078 11.54 3.85578L14.015 6.33078C14.99 6.13578 15.98 6.00078 17 6.00078ZM15.395 7.71078L18.5 10.8158C19.355 11.1908 20.045 11.8808 20.42 12.7358L23.525 15.8408C23.645 15.3308 23.735 14.7908 23.735 14.2358C23.75 10.5158 20.72 7.50078 17 7.50078C16.445 7.50078 15.92 7.57578 15.395 7.71078ZM2.015 2.80578L6.035 6.82578C3.59 8.74578 1.655 11.2958 0.5 14.2508C3.095 20.8358 9.5 25.5008 17 25.5008C19.28 25.5008 21.47 25.0658 23.48 24.2708L28.61 29.4008L30.725 27.2858L4.13 0.675781L2.015 2.80578ZM13.265 14.0558L17.18 17.9708C17.12 17.9858 17.06 18.0008 17 18.0008C14.93 18.0008 13.25 16.3208 13.25 14.2508C13.25 14.1758 13.265 14.1308 13.265 14.0558ZM8.165 8.95578L10.79 11.5808C10.445 12.4058 10.25 13.3058 10.25 14.2508C10.25 17.9708 13.28 21.0008 17 21.0008C17.945 21.0008 18.845 20.8058 19.655 20.4608L21.125 21.9308C19.805 22.2908 18.425 22.5008 17 22.5008C11.315 22.5008 6.245 19.3058 3.77 14.2508C4.82 12.1058 6.35 10.3358 8.165 8.95578Z" fill="#1B2B41" fill-opacity="0.72"/>
</svg>
