<svg width="30" height="30" viewBox="0 0 30 30" fill="none" xmlns="http://www.w3.org/2000/svg">
<path d="M19.2487 3.66634V13.583H5.32287L4.48703 14.4188L3.66536 15.2405V3.66634H19.2487ZM20.6654 0.833008H2.2487C1.46953 0.833008 0.832031 1.47051 0.832031 2.24967V22.083L6.4987 16.4163H20.6654C21.4445 16.4163 22.082 15.7788 22.082 14.9997V2.24967C22.082 1.47051 21.4445 0.833008 20.6654 0.833008ZM27.7487 6.49967H24.9154V19.2497H6.4987V22.083C6.4987 22.8622 7.1362 23.4997 7.91537 23.4997H23.4987L29.1654 29.1663V7.91634C29.1654 7.13717 28.5279 6.49967 27.7487 6.49967Z" fill="#18273A" fill-opacity="0.94"/>
</svg>
