<svg width="18" height="16" viewBox="0 0 18 16" fill="none" xmlns="http://www.w3.org/2000/svg">
<path d="M8.05334 1.28109C8.36095 0.377401 9.63905 0.377399 9.94666 1.28109L11.2389 5.07756C11.3769 5.48282 11.7575 5.75532 12.1856 5.75532H16.2649C17.2449 5.75532 17.6401 7.01859 16.8348 7.57705L13.6158 9.80948C13.2489 10.0639 13.0952 10.5308 13.2391 10.9534L14.4873 14.6205C14.7981 15.5336 13.7634 16.3141 12.9707 15.7644L9.56988 13.4059C9.22714 13.1682 8.77286 13.1682 8.43012 13.4059L5.02926 15.7644C4.23659 16.3142 3.20188 15.5336 3.51272 14.6205L4.76095 10.9534C4.90482 10.5308 4.75106 10.0639 4.38417 9.80948L1.16517 7.57705C0.359916 7.01859 0.755101 5.75532 1.73505 5.75532H5.81439C6.24249 5.75532 6.6231 5.48282 6.76105 5.07756L8.05334 1.28109Z" fill="white"/>
</svg>
