<svg width="20" height="20" viewBox="0 0 20 20" fill="none" xmlns="http://www.w3.org/2000/svg">
<path d="M14.95 8.23038L9.29 13.8904C8.9 14.2804 8.27 14.2804 7.88 13.8904L5.05 11.0604C4.66 10.6704 4.66 10.0404 5.05 9.65038C5.44 9.26038 6.07 9.26038 6.46 9.65038L8.58 11.7704L13.53 6.82038C13.92 6.43038 14.55 6.43038 14.94 6.82038C15.34 7.21038 15.34 7.84038 14.95 8.23038ZM2 10.0004C2 7.67038 3.02 5.58038 4.62 4.12038L6.15 5.65038C6.46 5.96038 7 5.74038 7 5.29038V1.00038C7 0.720377 6.78 0.500377 6.5 0.500377H2.21C1.76 0.500377 1.54 1.04038 1.86 1.35038L3.2 2.70038C1.24 4.52038 0 7.11038 0 10.0004C0 14.7504 3.32 18.7304 7.76 19.7504C8.39 19.8904 9 19.4204 9 18.7704C9 18.3004 8.67 17.9004 8.21 17.7904C4.66 16.9804 2 13.8004 2 10.0004ZM20 10.0004C20 5.25038 16.68 1.27038 12.24 0.250377C11.61 0.110377 11 0.580377 11 1.23038C11 1.70038 11.33 2.10038 11.79 2.21038C15.34 3.02038 18 6.20038 18 10.0004C18 12.3304 16.98 14.4204 15.38 15.8804L13.85 14.3504C13.54 14.0404 13 14.2604 13 14.7104V19.0004C13 19.2804 13.22 19.5004 13.5 19.5004H17.79C18.24 19.5004 18.46 18.9604 18.14 18.6504L16.8 17.3004C18.76 15.4804 20 12.8904 20 10.0004Z" fill="#E0BE07"/>
</svg>
