<svg width="22" height="25" viewBox="0 0 22 25" fill="none" xmlns="http://www.w3.org/2000/svg">
<path d="M3.38229 24.502C2.84896 24.502 2.38229 24.302 1.98229 23.902C1.58229 23.502 1.38229 23.0353 1.38229 22.502V3.50195H1.01562C0.726736 3.50195 0.487847 3.40751 0.298958 3.21862C0.11007 3.02973 0.015625 2.79084 0.015625 2.50195C0.015625 2.21306 0.11007 1.97418 0.298958 1.78529C0.487847 1.5964 0.726736 1.50195 1.01562 1.50195H6.28229C6.28229 1.21306 6.37674 0.974175 6.56563 0.785287C6.75451 0.596398 6.9934 0.501953 7.28229 0.501953H14.0823C14.3712 0.501953 14.6101 0.596398 14.799 0.785287C14.9878 0.974175 15.0823 1.21306 15.0823 1.50195H20.349C20.6378 1.50195 20.8767 1.5964 21.0656 1.78529C21.2545 1.97418 21.349 2.21306 21.349 2.50195C21.349 2.79084 21.2545 3.02973 21.0656 3.21862C20.8767 3.40751 20.6378 3.50195 20.349 3.50195H19.9823V22.502C19.9823 23.0353 19.7823 23.502 19.3823 23.902C18.9823 24.302 18.5156 24.502 17.9823 24.502H3.38229ZM3.38229 3.50195V22.502H17.9823V3.50195H3.38229ZM6.91563 18.6353C6.91563 18.9242 7.01007 19.1631 7.19896 19.352C7.38785 19.5408 7.62674 19.6353 7.91563 19.6353C8.20451 19.6353 8.4434 19.5408 8.63229 19.352C8.82118 19.1631 8.91563 18.9242 8.91563 18.6353V7.33529C8.91563 7.0464 8.82118 6.80751 8.63229 6.61862C8.4434 6.42973 8.20451 6.33529 7.91563 6.33529C7.62674 6.33529 7.38785 6.42973 7.19896 6.61862C7.01007 6.80751 6.91563 7.0464 6.91563 7.33529V18.6353ZM12.449 18.6353C12.449 18.9242 12.5434 19.1631 12.7323 19.352C12.9212 19.5408 13.1601 19.6353 13.449 19.6353C13.7378 19.6353 13.9767 19.5408 14.1656 19.352C14.3545 19.1631 14.449 18.9242 14.449 18.6353V7.33529C14.449 7.0464 14.3545 6.80751 14.1656 6.61862C13.9767 6.42973 13.7378 6.33529 13.449 6.33529C13.1601 6.33529 12.9212 6.42973 12.7323 6.61862C12.5434 6.80751 12.449 7.0464 12.449 7.33529V18.6353ZM3.38229 3.50195V22.502V3.50195Z" fill="#FF554D"/>
</svg>
